<svg width="98" height="62" viewBox="0 0 98 62" fill="none" xmlns="http://www.w3.org/2000/svg">
<path d="M92.9676 0H5.03239C2.25308 0 0 2.27067 0 5.07167V48.7342C0 51.5352 2.25308 53.8058 5.03239 53.8058H92.9676C95.7469 53.8058 98 51.5352 98 48.7342V5.07167C98 2.27067 95.7469 0 92.9676 0Z" fill="#8CB3FF"/>
<path d="M56.699 0H5.03671C3.70183 0.00306448 2.42249 0.538842 1.47858 1.49012C0.534669 2.44139 0.00304075 3.73072 0 5.07602L0 48.7298C0.00304075 50.0751 0.534669 51.3645 1.47858 52.3157C2.42249 53.267 3.70183 53.8028 5.03671 53.8058H56.699V0Z" fill="#CCDEFF"/>
<path d="M97.9576 4.42339C97.798 3.20166 97.2038 2.07984 96.2854 1.2663C95.367 0.452759 94.1868 0.00280135 92.9641 0L5.03749 0C3.81475 0.00280135 2.63458 0.452759 1.71618 1.2663C0.797782 2.07984 0.203581 3.20166 0.0439453 4.42339H97.9576Z" fill="#00CC99"/>
<path d="M11.1528 52.4281V62L24.8066 52.4281H11.1528Z" fill="#CCDEFF"/>
<path d="M8.8501 22.552H47.8486" stroke="white" stroke-width="4" stroke-miterlimit="10" stroke-linecap="round"/>
<path d="M8.8501 29.0784H47.8486" stroke="white" stroke-width="4" stroke-miterlimit="10" stroke-linecap="round"/>
<path d="M8.8501 35.6047H47.8486" stroke="white" stroke-width="4" stroke-miterlimit="10" stroke-linecap="round"/>
<path d="M8.8501 42.131H47.8486" stroke="white" stroke-width="4" stroke-miterlimit="10" stroke-linecap="round"/>
<path d="M44.8988 17.476C47.0844 17.476 48.8562 15.6904 48.8562 13.4877C48.8562 11.285 47.0844 9.49942 44.8988 9.49942C42.7132 9.49942 40.9414 11.285 40.9414 13.4877C40.9414 15.6904 42.7132 17.476 44.8988 17.476Z" fill="white"/>
</svg>
