<svg width="43" height="53" viewBox="0 0 43 53" fill="none" xmlns="http://www.w3.org/2000/svg">
<path d="M37.9981 37.9626L29.0512 16.3443C28.8059 15.7484 28.1625 15.4426 27.5674 15.6374L24.1203 16.7656L23.3743 14.3887C22.7745 12.4777 21.495 10.9201 19.7751 10.0021C18.0819 9.09637 16.0645 8.91791 14.2422 9.51436C10.4413 10.7584 8.35231 14.9701 9.58626 18.9016L10.3323 21.2785L6.88529 22.4067C6.29011 22.6015 5.94071 23.2322 6.08034 23.8628L11.1107 46.7604C11.4105 48.1274 12.2581 49.31 13.4356 50.0097C14.6131 50.7094 16.0262 50.8681 17.3154 50.4462L35.0445 44.6434C36.3314 44.2222 37.3909 43.2542 37.9514 41.9882C38.5135 40.7191 38.527 39.2521 37.9981 37.9626ZM21.8223 17.5178L12.6303 20.5263L11.8843 18.1494C11.0614 15.5277 12.4535 12.7209 14.9882 11.8913C16.2061 11.4926 17.5501 11.6084 18.6771 12.212C19.8247 12.8245 20.6757 13.8644 21.0763 15.1408L21.8223 17.5178Z" fill="#8CB3FF"/>
<path d="M32.4596 11.7518C35.1927 10.9926 36.7917 8.12051 36.0311 5.33696C35.2706 2.55342 32.4384 0.912437 29.7053 1.67173C26.9722 2.43103 25.3732 5.30307 26.1338 8.08661C26.8944 10.8702 29.7265 12.5111 32.4596 11.7518Z" fill="#FF7676"/>
<path d="M32.7421 8.52889L32.1033 8.70635L30.9448 4.4668L29.7925 5.29375L29.6347 4.7161L31.2679 3.52617L31.3675 3.4985L32.7421 8.52889Z" fill="white"/>
</svg>
