<svg width="49" height="49" viewBox="0 0 49 49" fill="none" xmlns="http://www.w3.org/2000/svg">
<path d="M35.4132 12.9159L16.4413 7.21797C12.7345 6.10468 8.82699 8.20714 7.7137 11.9139L2.01573 30.8858C0.902443 34.5926 3.0049 38.5001 6.71171 39.6134L25.6836 45.3114C29.3904 46.4246 33.2979 44.3222 34.4112 40.6154L40.1091 21.6435C41.2224 17.9367 39.12 14.0292 35.4132 12.9159Z" fill="#8CB3FF"/>
<path d="M37.7238 23.1482C41.5763 24.3053 45.6374 22.1202 46.7945 18.2676C47.9516 14.4151 45.7664 10.354 41.9139 9.19692C38.0613 8.03985 34.0002 10.225 32.8432 14.0775C31.6861 17.9301 33.8712 21.9912 37.7238 23.1482Z" fill="#FF7676"/>
<path d="M41.5264 18.0337C41.2088 19.0911 40.0677 19.5398 38.7681 19.1495C37.9258 18.8965 37.3656 18.3859 37.1177 17.618L38.2194 17.1379C38.4117 17.538 38.6513 17.8146 39.0618 17.9379C39.6265 18.1075 40.0738 17.9196 40.2002 17.4987C40.3294 17.0683 40.0561 16.6444 39.5004 16.4775L38.9646 16.3166L39.2581 15.3395L39.4912 15.4096C40.1453 15.606 40.597 15.3705 40.674 14.9837C40.7364 14.6797 40.5149 14.4079 40.1295 14.2922C39.771 14.1845 39.3259 14.2365 39.0182 14.4472L38.5929 13.3914C39.1898 13.0623 39.8837 12.8995 40.672 13.1363C41.7125 13.4488 42.3752 14.332 42.0437 15.3363C41.9017 15.8092 41.4778 16.1459 40.9104 16.2462C41.4828 16.6821 41.7337 17.3437 41.5264 18.0337Z" fill="white"/>
</svg>
