<svg width="60" height="36" viewBox="0 0 60 36" fill="none" xmlns="http://www.w3.org/2000/svg">
<path d="M45.5096 1.22952L10.5723 5.29263C4.73336 5.97168 0.553259 11.2794 1.23574 17.1479L2.11851 24.7386C2.80099 30.607 8.08761 34.8138 13.9265 34.1347L48.8639 30.0716C54.7028 29.3926 58.8829 24.0848 58.2004 18.2164L57.3176 10.6257C56.6351 4.75729 51.3485 0.550475 45.5096 1.22952Z" fill="#8CB3FF"/>
<path d="M14.5504 15.406L21.0242 20.5575L16.7708 25.9584L10.297 20.8069C9.58355 20.2392 9.12344 19.4102 9.01786 18.5023C8.91227 17.5944 9.16986 16.682 9.73395 15.9657C10.298 15.2495 11.1224 14.7881 12.0257 14.683C12.9291 14.578 13.8373 14.8379 14.5507 15.4056L14.5504 15.406Z" fill="#FF7676"/>
<path d="M21.8995 19.4578L16.7807 25.9575L11.4014 21.6769L16.5202 15.1772C17.0842 14.4609 17.9086 13.9995 18.8119 13.8945C19.7153 13.7894 20.6235 14.0493 21.337 14.617C22.0504 15.1847 22.5105 16.0137 22.616 16.9216C22.7216 17.8295 22.464 18.7419 21.9 19.4582L21.8995 19.4578Z" fill="#FF7676"/>
<path d="M26.8862 14.2694L28.7581 14.0517L29.5273 20.6659L32.5436 20.3151L32.7346 21.9568L27.8464 22.5252L26.8862 14.2694Z" fill="white"/>
<path d="M32.9543 13.5637L34.8262 13.346L35.7865 21.603L33.9146 21.8207L32.9543 13.5637Z" fill="white"/>
<path d="M41.8542 20.8961L39.244 18.5037L39.5533 21.1637L37.6815 21.3814L36.7212 13.1244L38.5931 12.9068L38.8872 15.436L40.3818 12.6999L42.718 12.4282L40.0936 16.8747L44.4176 20.598L41.8542 20.8961Z" fill="white"/>
<path d="M50.3068 18.2493L50.4977 19.891L45.1212 20.5162L44.1609 12.2593L49.4302 11.6464L49.6211 13.2881L46.2242 13.6831L46.4221 15.3844L49.403 15.0377L49.5996 16.7276L46.6186 17.0742L46.8025 18.6557L50.3068 18.2493Z" fill="white"/>
</svg>
