<svg width="60" height="32" viewBox="0 0 60 32" fill="none" xmlns="http://www.w3.org/2000/svg">
<path d="M52.2413 32L44.4827 25.243H52.3965L52.2413 32Z" fill="#8CB3FF"/>
<path d="M10.6966 26.008L49.3034 26.008C55.211 26.008 60 21.2864 60 15.462V10.546C60 4.72159 55.211 0 49.3034 0L10.6966 0C4.78901 0 3.8147e-06 4.72159 3.8147e-06 10.546V15.462C3.8147e-06 21.2864 4.78901 26.008 10.6966 26.008Z" fill="#8CB3FF"/>
<path d="M38.0173 15.2988C39.3028 15.2988 40.3449 14.2714 40.3449 13.004C40.3449 11.7366 39.3028 10.7092 38.0173 10.7092C36.7318 10.7092 35.6897 11.7366 35.6897 13.004C35.6897 14.2714 36.7318 15.2988 38.0173 15.2988Z" fill="white"/>
<path d="M29.9999 15.2988C31.2854 15.2988 32.3275 14.2714 32.3275 13.004C32.3275 11.7366 31.2854 10.7092 29.9999 10.7092C28.7145 10.7092 27.6724 11.7366 27.6724 13.004C27.6724 14.2714 28.7145 15.2988 29.9999 15.2988Z" fill="white"/>
<path d="M21.9829 15.2988C23.2683 15.2988 24.3104 14.2714 24.3104 13.004C24.3104 11.7366 23.2683 10.7092 21.9829 10.7092C20.6974 10.7092 19.6553 11.7366 19.6553 13.004C19.6553 14.2714 20.6974 15.2988 21.9829 15.2988Z" fill="white"/>
</svg>
