<svg width="41" height="33" viewBox="0 0 41 33" fill="none" xmlns="http://www.w3.org/2000/svg">
<path d="M29.976 5.8189L3.01783 11.2589C1.8519 11.4942 1.09881 12.6368 1.33575 13.8109L4.64805 30.2251C4.88499 31.3992 6.02223 32.1603 7.18815 31.925L34.1463 26.485C35.3123 26.2497 36.0654 25.1072 35.8284 23.933L32.5161 7.51887C32.2792 6.34472 31.1419 5.58362 29.976 5.8189Z" fill="#CCDEFF"/>
<path d="M2.01758 12.1371L18.5819 18.872" stroke="#8CB3FF" stroke-width="0.82" stroke-linecap="round" stroke-linejoin="round"/>
<path d="M32.087 5.39288L18.582 18.872" stroke="#8CB3FF" stroke-width="0.82" stroke-linecap="round" stroke-linejoin="round"/>
<path d="M32.9936 9.88551C35.4574 9.38832 37.0489 6.97385 36.5482 4.49263C36.0475 2.01142 33.6442 0.403057 31.1804 0.900248C28.7166 1.39744 27.1251 3.81191 27.6258 6.29312C28.1265 8.77433 30.5298 10.3827 32.9936 9.88551Z" fill="#FF7676"/>
<path d="M33.9025 7.86778L33.2526 7.99892L32.3833 3.69079L31.1766 4.43247L31.0581 3.84547L32.7696 2.77647L32.871 2.75602L33.9025 7.86778Z" fill="white"/>
</svg>
